<svg width="100" height="100" viewBox="0 0 100 100" xmlns="http://www.w3.org/2000/svg">
  <defs>
    <!-- Main gradient -->
    <linearGradient id="mainGradient" x1="0%" y1="0%" x2="100%" y2="100%">
      <stop offset="0%" style="stop-color:#667eea;stop-opacity:1" />
      <stop offset="50%" style="stop-color:#764ba2;stop-opacity:1" />
      <stop offset="100%" style="stop-color:#f093fb;stop-opacity:1" />
    </linearGradient>
    
    <!-- Accent gradient -->
    <linearGradient id="accentGradient" x1="0%" y1="0%" x2="100%" y2="0%">
      <stop offset="0%" style="stop-color:#ffffff;stop-opacity:0.9" />
      <stop offset="100%" style="stop-color:#ffffff;stop-opacity:0.6" />
    </linearGradient>
    
    <!-- Glow filter -->
    <filter id="glow" x="-50%" y="-50%" width="200%" height="200%">
      <feGaussianBlur stdDeviation="2" result="coloredBlur"/>
      <feFlood flood-color="white" flood-opacity="0.3"/>
      <feComposite in="coloredBlur" operator="in"/>
      <feMerge> 
        <feMergeNode/>
        <feMergeNode in="SourceGraphic"/>
      </feMerge>
    </filter>
  </defs>
  
  <!-- Main container circle -->
  <circle cx="50" cy="50" r="45" fill="url(#mainGradient)" stroke="white" stroke-width="2" filter="url(#glow)"/>
  
  <!-- AI neural network nodes -->
  <g stroke="white" stroke-width="1.5" fill="none" opacity="0.6">
    <!-- Connection lines -->
    <line x1="25" y1="30" x2="40" y2="40" stroke-linecap="round"/>
    <line x1="75" y1="30" x2="60" y2="40" stroke-linecap="round"/>
    <line x1="25" y1="70" x2="40" y2="60" stroke-linecap="round"/>
    <line x1="75" y1="70" x2="60" y2="60" stroke-linecap="round"/>
  </g>
  
  <!-- Neural nodes -->
  <circle cx="25" cy="30" r="3" fill="white" opacity="0.8"/>
  <circle cx="75" cy="30" r="3" fill="white" opacity="0.8"/>
  <circle cx="25" cy="70" r="3" fill="white" opacity="0.8"/>
  <circle cx="75" cy="70" r="3" fill="white" opacity="0.8"/>
  
  <!-- Central browser window -->
  <rect x="35" y="35" width="30" height="22" rx="3" ry="3" fill="white" opacity="0.9" stroke="rgba(255,255,255,0.5)" stroke-width="1"/>
  
  <!-- Browser header -->
  <rect x="35" y="35" width="30" height="6" rx="3" ry="3" fill="url(#accentGradient)" opacity="0.7"/>
  
  <!-- Browser dots -->
  <circle cx="39" cy="38" r="1" fill="rgba(102,126,234,0.8)"/>
  <circle cx="43" cy="38" r="1" fill="rgba(118,75,162,0.8)"/>
  <circle cx="47" cy="38" r="1" fill="rgba(240,147,251,0.8)"/>
  
  <!-- Code/content lines -->
  <rect x="38" y="44" width="20" height="1.5" rx="0.5" fill="url(#mainGradient)" opacity="0.6"/>
  <rect x="38" y="48" width="16" height="1.5" rx="0.5" fill="url(#mainGradient)" opacity="0.5"/>
  <rect x="38" y="52" width="12" height="1.5" rx="0.5" fill="url(#mainGradient)" opacity="0.4"/>
  
  <!-- Typing cursor -->
  <rect x="52" y="52" width="1" height="2" fill="url(#mainGradient)">
    <animate attributeName="opacity" values="1;0;1" dur="1.2s" repeatCount="indefinite"/>
  </rect>
  
  <!-- Prompt indicator (bottom) -->
  <path d="M 45 65 L 55 65 Q 58 65 58 68 L 58 72 Q 58 75 55 75 L 48 75 L 45 78 L 47 75 Q 45 75 45 72 L 45 68 Q 45 65 48 65 Z" 
        fill="white" 
        opacity="0.8" 
        stroke="rgba(255,255,255,0.3)" 
        stroke-width="0.5"/>
  
  <!-- Text in prompt -->
  <rect x="47" y="68" width="8" height="1" rx="0.5" fill="url(#mainGradient)" opacity="0.7"/>
  <rect x="47" y="71" width="6" height="1" rx="0.5" fill="url(#mainGradient)" opacity="0.6"/>
  
  <!-- Subtle animation particles -->
  <circle cx="30" cy="50" r="1" fill="white" opacity="0.6">
    <animate attributeName="cx" values="30;70;30" dur="3s" repeatCount="indefinite"/>
    <animate attributeName="opacity" values="0.6;0.2;0.6" dur="3s" repeatCount="indefinite"/>
  </circle>
  
  <circle cx="70" cy="50" r="1" fill="white" opacity="0.4">
    <animate attributeName="cx" values="70;30;70" dur="4s" repeatCount="indefinite"/>
    <animate attributeName="opacity" values="0.4;0.1;0.4" dur="4s" repeatCount="indefinite"/>
  </circle>
</svg>